<svg width="156" height="56" viewBox="0 0 156 56" fill="none" xmlns="http://www.w3.org/2000/svg">
<g clip-path="url(#clip0_2064_66)">
<rect x="21.5" y="0.5" width="134" height="55" rx="27.5" stroke="#101010"/>
<rect x="9.5" y="0.5" width="123" height="55" rx="27.5" stroke="#101010"/>
<rect width="106" height="56" rx="28" fill="#101010"/>
<path d="M28 12C19.1903 12 12 19.1903 12 28C12 36.8097 19.1903 44 28 44C36.8097 44 44 36.8097 44 28C44 19.1903 36.8097 12 28 12ZM16.4696 28C16.4696 24.6964 17.8947 21.6518 20.1619 19.579C21.0688 18.7369 22.6235 18.996 23.2713 20.0972L27.2874 27.0284C27.6761 27.6761 27.6761 28.4534 27.2874 29.1012L23.2713 36.0324C22.6235 37.1984 21.0688 37.3927 20.0972 36.4858C17.8947 34.2834 16.4696 31.3037 16.4696 28ZM32.7287 35.9028L28.7126 28.9717C28.3239 28.3239 28.3239 27.5466 28.7126 26.8988L32.7287 19.9676C33.3765 18.8664 34.8664 18.6073 35.8381 19.4494C38.1053 21.5223 39.5304 24.5668 39.5304 27.8704C39.5304 31.1741 38.1053 34.2186 35.8381 36.2915C34.8664 37.3279 33.3765 37.0688 32.7287 35.9028Z" fill="#00FF7F"/>
</g>
<defs>
<clipPath id="clip0_2064_66">
<rect width="156" height="56" fill="white"/>
</clipPath>
</defs>
</svg>
