<svg width="134" height="53" viewBox="0 0 134 53" fill="none" xmlns="http://www.w3.org/2000/svg">
<rect x="1.1228" y="1.28961" width="132.38" height="51.056" rx="25.528" stroke="#101010"/>
<path d="M33.5748 37.5123L10.6228 14.5603L14.3935 10.7896L37.3455 33.7389L37.3455 13.5123L42.6788 13.5123L42.6788 42.8456L13.3455 42.8456L13.3455 37.5123L33.5748 37.5123Z" fill="white"/>
<rect x="1.1228" y="1.28961" width="114.727" height="51.056" rx="25.528" stroke="#101010"/>
<path d="M33.5748 37.5123L10.6228 14.5603L14.3935 10.7896L37.3455 33.7389L37.3455 13.5123L42.6788 13.5123L42.6788 42.8456L13.3455 42.8456L13.3455 37.5123L33.5748 37.5123Z" fill="white"/>
<rect x="1.1228" y="1.28961" width="99.0353" height="51.056" rx="25.528" stroke="#101010"/>
<path d="M57.5645 37.5123L34.6125 14.5603L38.3831 10.7896L61.3351 33.7389L61.3351 13.5123L66.6685 13.5123L66.6685 42.8456L37.3351 42.8456L37.3351 37.5123L57.5645 37.5123Z" fill="#101010"/>
</svg>
