<svg width="398" height="134" viewBox="0 0 398 134" fill="none" xmlns="http://www.w3.org/2000/svg">
<path d="M219 15C219 6.71573 225.716 0 234 0H382.063C390.347 0 397.063 6.71573 397.063 15V39.5C397.063 47.7843 390.347 54.5 382.063 54.5H281C272.716 54.5 266 61.2157 266 69.5V118.5C266 126.784 259.284 133.5 251 133.5H15.5629C7.27864 133.5 0.562927 126.784 0.562927 118.5V90.9058C0.562927 82.6215 7.27866 75.9058 15.5629 75.9058H204C212.284 75.9058 219 69.1901 219 60.9058V15Z" fill="#BCFCDC"/>
</svg>
