<svg width="535" height="192" viewBox="0 0 535 192" fill="none" xmlns="http://www.w3.org/2000/svg">
<path d="M221.166 20.5C221.166 9.4543 230.12 0.5 241.166 0.5H515.002C526.048 0.5 535.002 9.45431 535.002 20.5V60.7087C535.002 71.7544 526.048 80.7087 515.002 80.7087H385.825C374.779 80.7087 365.825 89.663 365.825 100.709V172C365.825 183.046 356.871 192 345.825 192H183.163H20.5C9.45429 192 0.5 183.046 0.5 172V123.775C0.5 112.73 9.45431 103.775 20.5 103.775H201.166C212.212 103.775 221.166 94.8211 221.166 83.7754V20.5Z" fill="#BCFCDC"/>
</svg>
