<svg width="468" height="190" viewBox="0 0 468 190" fill="none" xmlns="http://www.w3.org/2000/svg">
<path d="M347.643 20C347.643 8.95432 338.689 0 327.643 0H20C8.95429 0 0 8.9543 0 20V52.4168C0 63.4625 8.95431 72.4168 20 72.4168H113.783C124.828 72.4168 133.783 81.3711 133.783 92.4168V170C133.783 181.046 142.737 190 153.783 190H300.891H448C459.046 190 468 181.046 468 170V120.288C468 109.242 459.046 100.288 448 100.288H367.643C356.598 100.288 347.643 91.3339 347.643 80.2882V20Z" fill="#BCFCDC"/>
</svg>
