<svg width="34" height="41" viewBox="0 0 34 41" fill="none" xmlns="http://www.w3.org/2000/svg">
<g clip-path="url(#clip0_53_4126)">
<path d="M3.34557 8.03686H7.10242C7.2053 8.03663 7.3039 7.99568 7.37667 7.92296C7.44944 7.85025 7.49047 7.75168 7.49078 7.6488C7.49078 7.64733 7.4453 4.42915 7.4453 3.53519V3.52426C7.4453 2.78978 7.59916 2.14922 7.8685 1.61172L7.99638 1.37103C7.98 1.37409 7.96501 1.38226 7.95356 1.39436L0.658976 8.62781C0.645611 8.63885 0.636097 8.65384 0.631805 8.67063C0.782718 8.59592 0.989151 8.49344 1.01809 8.48074C1.65275 8.19368 2.42326 8.03686 3.34557 8.03686Z" fill="#74BB44"/>
<path d="M32.557 7.24924C32.2587 5.65329 31.3092 4.86654 30.451 4.55704C29.5257 4.22243 27.648 3.87572 25.2902 3.59811C23.3924 3.37425 21.1618 3.39256 19.8145 3.43361C19.6529 2.32614 18.8762 1.31435 18.0068 0.964087C15.692 0.0326253 12.1129 0.257665 11.1951 0.514895C10.4647 0.719261 9.65671 1.13715 9.20752 1.78126C8.90599 2.21214 8.71048 2.76322 8.70901 3.53373C8.70901 3.96963 8.72112 4.99648 8.73234 5.90934C8.74297 6.82426 8.75567 7.64321 8.75567 7.64911C8.75512 8.0413 8.59904 8.41726 8.32167 8.69453C8.04429 8.97179 7.66827 9.12772 7.27608 9.12811H3.52129C2.72066 9.12811 2.10844 9.26249 1.64094 9.47483C1.17285 9.68746 0.841195 9.97393 0.589281 10.313C0.0881109 10.9857 0.000989398 11.8165 0.00305669 12.6647C0.00305669 12.6647 0.0101445 13.3572 0.177004 14.6983C0.316103 15.7355 1.4413 22.9834 2.51009 25.1877C2.92443 26.0447 3.20086 26.403 4.01449 26.781C5.82839 27.5577 9.97124 28.4218 11.9136 28.6693C13.8515 28.9174 15.0683 29.4384 15.793 27.9183C15.7954 27.9136 15.9386 27.5409 16.1347 26.9898C16.7644 25.0832 16.8521 23.3906 16.8521 22.1665C16.8521 22.0416 17.0349 22.0363 17.0349 22.1665C17.0349 23.0312 16.8692 26.0908 19.1807 26.9109C20.0936 27.234 21.9857 27.5229 23.9098 27.7485C25.6484 27.949 26.91 28.6324 26.91 33.0945C26.91 35.8086 26.34 36.1804 23.3599 36.1804C20.9438 36.1804 20.0227 36.2427 20.0227 34.3245C20.0227 32.7726 21.5572 32.9356 22.6942 32.9356C23.2025 32.9356 22.8333 32.5582 22.8333 31.6004C22.8333 30.6474 23.4299 30.0972 22.8658 30.0836C18.9341 29.975 16.6202 30.0789 16.6202 34.997C16.6202 39.4609 18.3284 40.2899 23.9098 40.2899C28.2851 40.2899 29.8264 40.1469 31.6335 34.541C31.9911 33.4344 32.8564 30.0577 33.3789 24.3868C33.7093 20.8021 33.0664 9.98013 32.557 7.24924ZM24.9293 19.21C24.3888 19.1914 23.869 19.2253 23.3844 19.3033C23.5211 18.2017 23.9757 16.8486 25.5872 16.9053C27.3713 16.967 27.6206 18.653 27.6268 19.7944C26.8749 19.4595 25.9437 19.2457 24.9293 19.21Z" fill="#74BB44"/>
</g>
<defs>
<clipPath id="clip0_53_4126">
<rect width="33.472" height="40" fill="white" transform="translate(0 0.289551)"/>
</clipPath>
</defs>
</svg>
