<svg width="83" height="68" viewBox="0 0 83 68" fill="none" xmlns="http://www.w3.org/2000/svg">
<g clip-path="url(#clip0_53_4118)">
<path d="M46.4042 34.1332L54.4007 43.2734L65.1533 50.145L67.0282 34.1894L65.1533 18.5901L54.1945 24.6273L46.4042 34.1332Z" fill="#00832D"/>
<path d="M0 48.6639V62.257C0 65.3647 2.51707 67.8818 5.62475 67.8818H19.2179L22.0303 57.6072L19.2179 48.6639L9.89018 45.8515L0 48.6639Z" fill="#0066DA"/>
<path d="M19.2179 0.384735L-3.05176e-05 19.6026L9.89015 22.415L19.2179 19.6026L21.9834 10.7811L19.2179 0.384735Z" fill="#E94235"/>
<path d="M19.2179 19.6026H0V48.6638H19.2179V19.6026Z" fill="#2684FC"/>
<path d="M77.434 8.52182L65.1533 18.5901V50.145L77.4902 60.2601C79.337 61.7038 82.0369 60.3867 82.0369 58.0383V10.6967C82.0369 8.32027 79.2761 7.0172 77.434 8.52182ZM46.4041 34.1332V48.6638H19.2178V67.8817H59.5285C62.6362 67.8817 65.1533 65.3646 65.1533 62.2569V50.145L46.4041 34.1332Z" fill="#00AC47"/>
<path d="M59.5285 0.384735H19.2178V19.6026H46.4041V34.1332L65.1533 18.5995V6.00948C65.1533 2.90181 62.6362 0.384735 59.5285 0.384735Z" fill="#FFBA00"/>
</g>
<defs>
<clipPath id="clip0_53_4118">
<rect width="82.0369" height="67.5" fill="white" transform="translate(0 0.38327)"/>
</clipPath>
</defs>
</svg>
