<svg width="535" height="173" viewBox="0 0 535 173" fill="none" xmlns="http://www.w3.org/2000/svg">
<path d="M220.666 20C220.666 8.9543 229.62 0 240.666 0H514.502C525.548 0 534.502 8.95431 534.502 20V52.2087C534.502 63.2544 525.548 72.2087 514.502 72.2087H385.325C374.279 72.2087 365.325 81.163 365.325 92.2087V153C365.325 164.046 356.371 173 345.325 173H20C8.95429 173 0 164.046 0 153V115.275C0 104.23 8.95431 95.2754 20 95.2754H200.666C211.712 95.2754 220.666 86.3211 220.666 75.2754V20Z" fill="#BCFCDC"/>
</svg>
