<svg width="30" height="30" viewBox="0 0 30 30" fill="none" xmlns="http://www.w3.org/2000/svg">
<g clip-path="url(#clip0_53_4051)">
<path d="M10.3502 15.093C10.3502 12.473 12.4736 10.3485 15.0937 10.3485C17.7137 10.3485 19.8382 12.473 19.8382 15.093C19.8382 17.7131 17.7137 19.8376 15.0937 19.8376C12.4736 19.8376 10.3502 17.7131 10.3502 15.093ZM7.78541 15.093C7.78541 19.1294 11.0573 22.4013 15.0937 22.4013C19.13 22.4013 22.4019 19.1294 22.4019 15.093C22.4019 11.0567 19.13 7.78477 15.0937 7.78477C11.0573 7.78477 7.78541 11.0567 7.78541 15.093ZM20.9833 7.49499C20.9832 7.83279 21.0832 8.16303 21.2708 8.44397C21.4583 8.72491 21.725 8.94392 22.037 9.07332C22.349 9.20271 22.6924 9.23667 23.0238 9.1709C23.3551 9.10513 23.6595 8.94259 23.8984 8.70383C24.1374 8.46507 24.3001 8.16082 24.3662 7.82954C24.4322 7.49827 24.3985 7.15485 24.2694 6.84272C24.1402 6.53059 23.9214 6.26376 23.6407 6.07598C23.3599 5.8882 23.0297 5.78791 22.6919 5.78777H22.6912C22.2384 5.78798 21.8043 5.96789 21.484 6.288C21.1638 6.6081 20.9837 7.04221 20.9833 7.49499ZM9.3437 26.678C7.95609 26.6148 7.20187 26.3836 6.70066 26.1884C6.03617 25.9297 5.56206 25.6216 5.06357 25.1238C4.56509 24.626 4.25653 24.1523 3.99898 23.4878C3.8036 22.9868 3.57246 22.2324 3.50938 20.8448C3.44038 19.3446 3.4266 18.8939 3.4266 15.0931C3.4266 11.2924 3.44152 10.8429 3.50938 9.34147C3.57257 7.95385 3.80542 7.20089 3.99898 6.69843C4.25767 6.03394 4.56578 5.55982 5.06357 5.06134C5.56137 4.56286 6.03503 4.2543 6.70066 3.99674C7.20165 3.80136 7.95609 3.57022 9.3437 3.50714C10.8439 3.43815 11.2946 3.42437 15.0937 3.42437C18.8927 3.42437 19.3438 3.43928 20.8453 3.50714C22.2329 3.57034 22.9859 3.80318 23.4884 3.99674C24.1529 4.2543 24.627 4.56354 25.1254 5.06134C25.6239 5.55914 25.9314 6.03394 26.19 6.69843C26.3854 7.19941 26.6166 7.95385 26.6796 9.34147C26.7486 10.8429 26.7624 11.2924 26.7624 15.0931C26.7624 18.8939 26.7486 19.3433 26.6796 20.8448C26.6164 22.2324 26.3842 22.9866 26.19 23.4878C25.9314 24.1523 25.6232 24.6264 25.1254 25.1238C24.6276 25.6211 24.1529 25.9297 23.4884 26.1884C22.9874 26.3838 22.2329 26.6149 20.8453 26.678C19.3451 26.747 18.8944 26.7608 15.0937 26.7608C11.2929 26.7608 10.8435 26.747 9.3437 26.678ZM9.22586 0.946651C7.71072 1.01565 6.67538 1.2559 5.77122 1.60772C4.83483 1.97105 4.04213 2.45849 3.25001 3.24936C2.45788 4.04024 1.97169 4.83419 1.60837 5.77058C1.25654 6.67531 1.01629 7.71008 0.947292 9.22522C0.877154 10.7428 0.861099 11.2279 0.861099 15.093C0.861099 18.9581 0.877154 19.4433 0.947292 20.9608C1.01629 22.4761 1.25654 23.5107 1.60837 24.4155C1.97169 25.3513 2.45799 26.1461 3.25001 26.9367C4.04202 27.7272 4.83483 28.214 5.77122 28.5783C6.67709 28.9301 7.71072 29.1704 9.22586 29.2394C10.7442 29.3084 11.2285 29.3256 15.0937 29.3256C18.9588 29.3256 19.4439 29.3095 20.9615 29.2394C22.4767 29.1704 23.5114 28.9301 24.4161 28.5783C25.3519 28.214 26.1452 27.7275 26.9373 26.9367C27.7294 26.1458 28.2146 25.3513 28.5789 24.4155C28.9308 23.5107 29.1722 22.476 29.24 20.9608C29.309 19.4421 29.3251 18.9581 29.3251 15.093C29.3251 11.2279 29.309 10.7428 29.24 9.22522C29.171 7.70996 28.9308 6.67474 28.5789 5.77058C28.2146 4.83476 27.7282 4.04149 26.9373 3.24936C26.1464 2.45724 25.3519 1.97105 24.4172 1.60772C23.5114 1.2559 22.4766 1.01451 20.9626 0.946651C19.4451 0.877651 18.9599 0.860458 15.0948 0.860458C11.2297 0.860458 10.7442 0.876513 9.22586 0.946651Z" fill="url(#paint0_radial_53_4051)"/>
<path d="M10.3502 15.093C10.3502 12.473 12.4736 10.3485 15.0937 10.3485C17.7137 10.3485 19.8382 12.473 19.8382 15.093C19.8382 17.7131 17.7137 19.8376 15.0937 19.8376C12.4736 19.8376 10.3502 17.7131 10.3502 15.093ZM7.78541 15.093C7.78541 19.1294 11.0573 22.4013 15.0937 22.4013C19.13 22.4013 22.4019 19.1294 22.4019 15.093C22.4019 11.0567 19.13 7.78477 15.0937 7.78477C11.0573 7.78477 7.78541 11.0567 7.78541 15.093ZM20.9833 7.49499C20.9832 7.83279 21.0832 8.16303 21.2708 8.44397C21.4583 8.72491 21.725 8.94392 22.037 9.07332C22.349 9.20271 22.6924 9.23667 23.0238 9.1709C23.3551 9.10513 23.6595 8.94259 23.8984 8.70383C24.1374 8.46507 24.3001 8.16082 24.3662 7.82954C24.4322 7.49827 24.3985 7.15485 24.2694 6.84272C24.1402 6.53059 23.9214 6.26376 23.6407 6.07598C23.3599 5.8882 23.0297 5.78791 22.6919 5.78777H22.6912C22.2384 5.78798 21.8043 5.96789 21.484 6.288C21.1638 6.6081 20.9837 7.04221 20.9833 7.49499ZM9.3437 26.678C7.95609 26.6148 7.20187 26.3836 6.70066 26.1884C6.03617 25.9297 5.56206 25.6216 5.06357 25.1238C4.56509 24.626 4.25653 24.1523 3.99898 23.4878C3.8036 22.9868 3.57246 22.2324 3.50938 20.8448C3.44038 19.3446 3.4266 18.8939 3.4266 15.0931C3.4266 11.2924 3.44152 10.8429 3.50938 9.34147C3.57257 7.95385 3.80542 7.20089 3.99898 6.69843C4.25767 6.03394 4.56578 5.55982 5.06357 5.06134C5.56137 4.56286 6.03503 4.2543 6.70066 3.99674C7.20165 3.80136 7.95609 3.57022 9.3437 3.50714C10.8439 3.43815 11.2946 3.42437 15.0937 3.42437C18.8927 3.42437 19.3438 3.43928 20.8453 3.50714C22.2329 3.57034 22.9859 3.80318 23.4884 3.99674C24.1529 4.2543 24.627 4.56354 25.1254 5.06134C25.6239 5.55914 25.9314 6.03394 26.19 6.69843C26.3854 7.19941 26.6166 7.95385 26.6796 9.34147C26.7486 10.8429 26.7624 11.2924 26.7624 15.0931C26.7624 18.8939 26.7486 19.3433 26.6796 20.8448C26.6164 22.2324 26.3842 22.9866 26.19 23.4878C25.9314 24.1523 25.6232 24.6264 25.1254 25.1238C24.6276 25.6211 24.1529 25.9297 23.4884 26.1884C22.9874 26.3838 22.2329 26.6149 20.8453 26.678C19.3451 26.747 18.8944 26.7608 15.0937 26.7608C11.2929 26.7608 10.8435 26.747 9.3437 26.678ZM9.22586 0.946651C7.71072 1.01565 6.67538 1.2559 5.77122 1.60772C4.83483 1.97105 4.04213 2.45849 3.25001 3.24936C2.45788 4.04024 1.97169 4.83419 1.60837 5.77058C1.25654 6.67531 1.01629 7.71008 0.947292 9.22522C0.877154 10.7428 0.861099 11.2279 0.861099 15.093C0.861099 18.9581 0.877154 19.4433 0.947292 20.9608C1.01629 22.4761 1.25654 23.5107 1.60837 24.4155C1.97169 25.3513 2.45799 26.1461 3.25001 26.9367C4.04202 27.7272 4.83483 28.214 5.77122 28.5783C6.67709 28.9301 7.71072 29.1704 9.22586 29.2394C10.7442 29.3084 11.2285 29.3256 15.0937 29.3256C18.9588 29.3256 19.4439 29.3095 20.9615 29.2394C22.4767 29.1704 23.5114 28.9301 24.4161 28.5783C25.3519 28.214 26.1452 27.7275 26.9373 26.9367C27.7294 26.1458 28.2146 25.3513 28.5789 24.4155C28.9308 23.5107 29.1722 22.476 29.24 20.9608C29.309 19.4421 29.3251 18.9581 29.3251 15.093C29.3251 11.2279 29.309 10.7428 29.24 9.22522C29.171 7.70996 28.9308 6.67474 28.5789 5.77058C28.2146 4.83476 27.7282 4.04149 26.9373 3.24936C26.1464 2.45724 25.3519 1.97105 24.4172 1.60772C23.5114 1.2559 22.4766 1.01451 20.9626 0.946651C19.4451 0.877651 18.9599 0.860458 15.0948 0.860458C11.2297 0.860458 10.7442 0.876513 9.22586 0.946651Z" fill="url(#paint1_radial_53_4051)"/>
</g>
<defs>
<radialGradient id="paint0_radial_53_4051" cx="0" cy="0" r="1" gradientUnits="userSpaceOnUse" gradientTransform="translate(4.64286 29.46) scale(37.1588 37.1588)">
<stop offset="0.09" stop-color="#FA8F21"/>
<stop offset="0.78" stop-color="#D82D7E"/>
</radialGradient>
<radialGradient id="paint1_radial_53_4051" cx="0" cy="0" r="1" gradientUnits="userSpaceOnUse" gradientTransform="translate(18.1239 30.7353) scale(29.2863)">
<stop offset="0.64" stop-color="#8C3AAA" stop-opacity="0"/>
<stop offset="1" stop-color="#8C3AAA"/>
</radialGradient>
<clipPath id="clip0_53_4051">
<rect width="28.4651" height="28.4651" fill="white" transform="translate(0.860458 0.860458)"/>
</clipPath>
</defs>
</svg>
