<svg width="32" height="32" viewBox="0 0 32 32" fill="none" xmlns="http://www.w3.org/2000/svg">
<g clip-path="url(#clip0_53_4056)">
<path fill-rule="evenodd" clip-rule="evenodd" d="M15.8605 0.790741C7.27279 0.790741 0.617332 7.07487 0.617332 15.5621C0.617332 20.0017 2.43911 23.8377 5.40497 26.4881C5.65343 26.7118 5.80365 27.0212 5.81592 27.3552L5.89877 30.0636C5.92636 30.9277 6.81885 31.4884 7.61019 31.1422L10.6343 29.8094C10.8901 29.6962 11.1771 29.6745 11.447 29.7481C12.8364 30.1311 14.3178 30.3333 15.8605 30.3333C24.4481 30.3333 31.1036 24.0492 31.1036 15.562C31.1036 7.07487 24.4481 0.790741 15.8605 0.790741Z" fill="url(#paint0_linear_53_4056)"/>
<path fill-rule="evenodd" clip-rule="evenodd" d="M6.70849 19.8823L11.1863 12.7862C11.8979 11.6587 13.4252 11.3767 14.4925 12.1765L18.0533 14.8452C18.2124 14.964 18.4058 15.028 18.6044 15.0275C18.803 15.0269 18.996 14.9619 19.1544 14.8421L23.9636 11.196C24.6045 10.7089 25.445 11.478 25.0124 12.1581L20.5377 19.2511C19.8261 20.3786 18.2988 20.6606 17.2314 19.8608L13.6706 17.1921C13.5116 17.0733 13.3182 17.0093 13.1196 17.0098C12.921 17.0104 12.728 17.0754 12.5696 17.1952L7.75737 20.8444C7.1164 21.3316 6.27597 20.5625 6.70849 19.8823Z" fill="white"/>
</g>
<defs>
<linearGradient id="paint0_linear_53_4056" x1="6097.87" y1="0.790741" x2="6097.87" y2="12267.5" gradientUnits="userSpaceOnUse">
<stop stop-color="#00B2FF"/>
<stop offset="1" stop-color="#006AFF"/>
</linearGradient>
<clipPath id="clip0_53_4056">
<rect width="30.6977" height="30.6977" fill="white" transform="translate(0.511627 0.790695)"/>
</clipPath>
</defs>
</svg>
