<svg width="49" height="49" viewBox="0 0 49 49" fill="none" xmlns="http://www.w3.org/2000/svg">
<g clip-path="url(#clip0_53_4131)">
<path d="M25.7872 16.3901C29.6535 16.3901 32.7877 13.2559 32.7877 9.3896C32.7877 5.52333 29.6535 2.3891 25.7872 2.3891C21.9209 2.3891 18.7867 5.52333 18.7867 9.3896C18.7867 13.2559 21.9209 16.3901 25.7872 16.3901Z" fill="#7B83EB"/>
<path opacity="0.1" d="M25.2877 10.8896H18.9472L18.9787 11.0291L18.9817 11.0411L19.0147 11.1701C19.4754 12.9171 20.5932 14.4187 22.1347 15.3612C23.6762 16.3037 25.5222 16.6143 27.2872 16.2281V12.8891C27.2856 12.3593 27.0745 11.8516 26.6998 11.477C26.3252 11.1023 25.8175 10.8912 25.2877 10.8896Z" fill="black"/>
<path opacity="0.2" d="M23.7877 12.3896H19.4617C20.0295 13.5866 20.9252 14.598 22.0449 15.3061C23.1647 16.0143 24.4623 16.3902 25.7872 16.3901V14.3891C25.7856 13.8593 25.5744 13.3516 25.1998 12.977C24.8252 12.6023 24.3175 12.3912 23.7877 12.3896Z" fill="black"/>
<path d="M41.5372 16.8896C44.4367 16.8896 46.7872 14.5391 46.7872 11.6396C46.7872 8.74009 44.4367 6.38959 41.5372 6.38959C38.6377 6.38959 36.2872 8.74009 36.2872 11.6396C36.2872 14.5391 38.6377 16.8896 41.5372 16.8896Z" fill="#5059C9"/>
<path d="M46.0372 18.3896H34.2457C33.9911 18.3896 33.7469 18.4907 33.5669 18.6708C33.3869 18.8508 33.2857 19.095 33.2857 19.3496V31.5146C33.2532 33.2752 33.8266 34.9935 34.9099 36.3818C35.9931 37.7701 37.5205 38.7441 39.2362 39.1406C40.3289 39.3699 41.4591 39.3526 42.5443 39.09C43.6295 38.8274 44.6425 38.3261 45.5095 37.6226C46.3765 36.9191 47.0757 36.0311 47.5562 35.0233C48.0368 34.0154 48.2865 32.9131 48.2872 31.7966V20.6396C48.2872 20.0429 48.0502 19.4706 47.6282 19.0486C47.2062 18.6266 46.6339 18.3896 46.0372 18.3896Z" fill="#5059C9"/>
<path d="M37.7872 20.6396V34.8896C37.7887 37.5304 36.9184 40.0979 35.3115 42.1935C33.7046 44.2892 31.4509 45.7959 28.9002 46.4797C26.3494 47.1636 23.6443 46.9863 21.2046 45.9756C18.7648 44.9648 16.727 43.177 15.4072 40.8896C15.1185 40.4099 14.8678 39.9083 14.6572 39.3896C14.4609 38.9005 14.2955 38.3995 14.1622 37.8896C13.9149 36.9087 13.789 35.9012 13.7872 34.8896V20.6396C13.7868 20.344 13.8447 20.0512 13.9577 19.7781C14.0706 19.5049 14.2363 19.2567 14.4453 19.0477C14.6543 18.8387 14.9025 18.673 15.1757 18.5601C15.4488 18.4471 15.7416 18.3892 16.0372 18.3896H35.5372C35.8328 18.3892 36.1255 18.4471 36.3987 18.5601C36.6719 18.673 36.92 18.8387 37.1291 19.0477C37.3381 19.2567 37.5038 19.5049 37.6167 19.7781C37.7297 20.0512 37.7876 20.344 37.7872 20.6396Z" fill="#7B83EB"/>
<path opacity="0.2" d="M23.7877 12.3896H19.4617C20.0295 13.5866 20.9252 14.598 22.0449 15.3061C23.1647 16.0143 24.4623 16.3902 25.7872 16.3901V14.3891C25.7856 13.8593 25.5744 13.3516 25.1998 12.977C24.8252 12.6023 24.3175 12.3912 23.7877 12.3896Z" fill="black"/>
<path opacity="0.1" d="M27.2872 18.3896V37.3946C27.2872 37.8468 27.1324 38.2853 26.8486 38.6374C26.5648 38.9894 26.1691 39.2337 25.7272 39.3296C25.5861 39.3716 25.4394 39.3918 25.2922 39.3896H14.6572C14.4609 38.9005 14.2955 38.3995 14.1622 37.8896C13.9149 36.9087 13.789 35.9012 13.7872 34.8896V20.6396C13.7868 20.344 13.8447 20.0512 13.9577 19.7781C14.0706 19.5049 14.2363 19.2567 14.4453 19.0477C14.6543 18.8387 14.9025 18.673 15.1757 18.5601C15.4488 18.4471 15.7416 18.3892 16.0372 18.3896H27.2872Z" fill="black"/>
<path opacity="0.2" d="M25.7872 18.3896V38.8946C25.7894 39.0418 25.7691 39.1885 25.7272 39.3296C25.6313 39.7715 25.387 40.1672 25.035 40.451C24.6829 40.7348 24.2444 40.8896 23.7922 40.8896H15.4072C15.1185 40.4099 14.8678 39.9083 14.6572 39.3896C14.4609 38.9005 14.2955 38.3995 14.1622 37.8896C13.9149 36.9087 13.789 35.9012 13.7872 34.8896V20.6396C13.7868 20.344 13.8447 20.0512 13.9577 19.7781C14.0706 19.5049 14.2363 19.2567 14.4453 19.0477C14.6543 18.8387 14.9025 18.673 15.1757 18.5601C15.4488 18.4471 15.7416 18.3892 16.0372 18.3896H25.7872Z" fill="black"/>
<path opacity="0.2" d="M25.7872 18.3896V35.8946C25.7848 36.423 25.5739 36.929 25.2002 37.3027C24.8266 37.6763 24.3206 37.8872 23.7922 37.8896H14.1622C13.9149 36.9087 13.789 35.9012 13.7872 34.8896V20.6396C13.7868 20.344 13.8447 20.0512 13.9577 19.7781C14.0706 19.5049 14.2363 19.2567 14.4453 19.0477C14.6543 18.8387 14.9025 18.673 15.1757 18.5601C15.4488 18.4471 15.7416 18.3892 16.0372 18.3896H25.7872Z" fill="black"/>
<path opacity="0.2" d="M16.0372 18.3896C15.7416 18.3892 15.4488 18.4471 15.1757 18.5601C14.9025 18.673 14.6543 18.8387 14.4453 19.0477C14.2363 19.2567 14.0706 19.5049 13.9577 19.7781C13.8447 20.0512 13.7868 20.344 13.7872 20.6396V34.8896C13.789 35.9012 13.9149 36.9087 14.1622 37.8896H22.2922C22.8206 37.8872 23.3266 37.6763 23.7003 37.3027C24.0739 36.929 24.2848 36.423 24.2872 35.8946V18.3896H16.0372Z" fill="black"/>
<path d="M2.28672 12.3896H22.2877C22.818 12.3896 23.3266 12.6002 23.7016 12.9752C24.0766 13.3502 24.2872 13.8588 24.2872 14.3891V34.3901C24.2872 34.9204 24.0766 35.429 23.7016 35.8039C23.3266 36.1789 22.818 36.3896 22.2877 36.3896H2.28672C1.75642 36.3896 1.24784 36.1789 0.872856 35.8039C0.497877 35.429 0.287216 34.9204 0.287216 34.3901L0.287216 14.3891C0.287216 13.8588 0.497877 13.3502 0.872856 12.9752C1.24784 12.6002 1.75642 12.3896 2.28672 12.3896Z" fill="#4B53BC"/>
<path d="M18.2572 19.8521H13.7722V31.8821H10.8292V19.8521H6.31721V16.8971H18.2572V19.8521Z" fill="white"/>
</g>
<defs>
<clipPath id="clip0_53_4131">
<rect width="48.8202" height="48" fill="white" transform="translate(0 0.389557)"/>
</clipPath>
</defs>
</svg>
