<svg width="51" height="56" viewBox="0 0 51 56" fill="none" xmlns="http://www.w3.org/2000/svg">
<g clip-path="url(#clip0_53_4114)">
<path d="M18.245 2.47548C9.96344 3.09924 2.92317 3.67288 2.59216 3.74006C1.66407 3.90853 0.819787 4.54934 0.422783 5.39275L0.0750122 6.13486L0.108532 23.8219L0.157765 41.5089L0.687802 42.605C0.98634 43.2117 3.00697 46.0447 5.20987 48.9609C9.56644 54.7102 9.88069 55.0311 11.5368 55.1996C12.0176 55.2497 15.6283 55.0812 19.5376 54.8456C23.4637 54.5929 29.7571 54.2048 33.5344 53.9862C49.667 52.9892 48.8384 53.0735 49.7654 52.2642C50.925 51.2864 50.8423 52.888 50.8915 31.3912C50.925 13.1647 50.9083 11.9683 50.6432 11.4118C50.329 10.788 49.7654 10.3498 42.4109 5.08887C37.4918 1.58196 37.1441 1.39643 34.9401 1.36231C34.0298 1.32926 26.5098 1.83466 18.245 2.47548ZM36.8623 4.78499C37.5578 5.10486 42.6435 8.71307 43.3882 9.40506C43.5873 9.60765 43.6532 9.77612 43.5537 9.87741C43.3222 10.08 11.85 11.9854 10.9397 11.85C10.526 11.7828 9.91316 11.5301 9.56539 11.2934C8.12403 10.2986 4.5468 7.31414 4.5468 7.09556C4.5468 6.52191 4.43053 6.52191 18.4608 5.49405C21.1445 5.30852 25.5503 4.97158 28.234 4.75193C34.0466 4.27958 35.7865 4.29664 36.8623 4.78499ZM46.867 14.0081C47.0985 14.2437 47.2975 14.699 47.3635 15.1372C47.4127 15.5424 47.4463 23.0958 47.4127 31.8966C47.3635 47.0033 47.3467 47.948 47.065 48.3862C46.8995 48.656 46.5684 48.9428 46.3191 49.0271C45.6246 49.3139 12.6461 51.2193 11.9673 51.0167C11.6531 50.9324 11.2215 50.6627 10.99 50.427L10.5919 49.9888L10.5427 33.7018C10.5092 22.2705 10.5427 17.2122 10.6757 16.7569C10.7753 16.4199 11.0235 16.0148 11.2393 15.8804C11.5378 15.6778 13.4925 15.5094 20.2175 15.1053C24.9386 14.8355 32.2428 14.3802 36.4339 14.1275C46.4029 13.5027 46.3705 13.5027 46.867 14.0081Z" fill="#1D1D21"/>
<path d="M38.0051 19.5889C36.216 19.7073 34.6259 19.8757 34.4436 19.977C33.8968 20.2639 33.5658 20.7362 33.4998 21.2757C33.4506 21.8323 33.6161 21.8995 35.4042 22.1191L36.1825 22.2204V29.4198C36.1825 33.7018 36.1165 36.5349 36.0337 36.4506C35.951 36.3494 33.5993 32.7081 30.7993 28.3578C28.0004 23.9915 25.6812 20.3993 25.6477 20.3662C25.6142 20.3321 23.7926 20.4334 21.6064 20.5859C18.9227 20.7714 17.4489 20.9399 17.1504 21.1083C16.6696 21.361 16.1395 22.2545 16.1395 22.8453C16.1395 23.1992 16.7691 23.3848 18.0942 23.3848H18.7897V44.0893L17.6636 44.4433C16.7858 44.713 16.4873 44.8815 16.3386 45.2185C16.0735 45.7921 16.0903 46.3146 16.3553 46.3146C16.4548 46.3146 18.3267 46.1962 20.4793 46.0619C24.7364 45.8092 25.2161 45.6908 25.6634 44.7973C25.7965 44.5275 25.9117 44.2407 25.9117 44.1565C25.9117 44.0893 25.3324 43.8867 24.6358 43.7182C23.9235 43.5498 23.2112 43.3813 23.0625 43.3472C22.7807 43.2629 22.7639 42.7405 22.7639 35.49V27.717L27.7993 35.7597C33.0829 44.1895 33.746 45.1513 34.5578 45.5725C35.5686 46.112 38.136 45.7409 39.4276 44.8815L39.8257 44.6288L39.8592 33.1303L39.9084 21.6148L40.7862 21.4463C41.8295 21.2437 42.3103 20.7554 42.3103 19.912C42.3103 19.3725 42.2768 19.3383 41.7803 19.3554C41.4839 19.3693 39.7775 19.4706 38.0051 19.5889Z" fill="#1D1D21"/>
</g>
<defs>
<clipPath id="clip0_53_4114">
<rect width="50.85" height="55.0875" fill="white" transform="translate(0.0750122 0.745789)"/>
</clipPath>
</defs>
</svg>
