<svg width="25" height="24" viewBox="0 0 25 24" fill="none" xmlns="http://www.w3.org/2000/svg">
<path d="M23 12C23.0006 12.2546 22.9353 12.5051 22.8105 12.727C22.6856 12.949 22.5055 13.1348 22.2875 13.2665L8.78 21.5297C8.55227 21.6691 8.29144 21.7452 8.02445 21.7502C7.75746 21.7551 7.49399 21.6887 7.26125 21.5578C7.03073 21.4289 6.8387 21.2409 6.7049 21.0132C6.57111 20.7855 6.50039 20.5263 6.5 20.2622V3.73779C6.50039 3.47368 6.57111 3.21445 6.7049 2.98673C6.8387 2.75902 7.03073 2.57106 7.26125 2.44217C7.49399 2.31124 7.75746 2.24482 8.02445 2.24977C8.29144 2.25471 8.55227 2.33084 8.78 2.47029L22.2875 10.7334C22.5055 10.8651 22.6856 11.051 22.8105 11.2729C22.9353 11.4949 23.0006 11.7453 23 12Z" fill="#101010"/>
</svg>
