<svg width="43" height="43" viewBox="0 0 43 43" fill="none" xmlns="http://www.w3.org/2000/svg">
<path d="M21.473 0.789551C9.91021 0.789551 0.472961 10.2268 0.472961 21.7896C0.472961 33.3523 9.91021 42.7896 21.473 42.7896C33.0357 42.7896 42.473 33.3523 42.473 21.7896C42.473 10.2268 33.0357 0.789551 21.473 0.789551ZM6.33936 21.7896C6.33936 17.4535 8.2098 13.4576 11.1855 10.7369C12.3758 9.63167 14.4163 9.97174 15.2665 11.4171L20.5377 20.5143C21.0479 21.3645 21.0479 22.3847 20.5377 23.2349L15.2665 32.3321C14.4163 33.8624 12.3758 34.1175 11.1005 32.9272C8.2098 30.0365 6.33936 26.1256 6.33936 21.7896ZM27.6794 32.162L22.4082 23.0649C21.8981 22.2147 21.8981 21.1944 22.4082 20.3442L27.6794 11.247C28.5296 9.80169 30.4851 9.46162 31.7604 10.5669C34.7361 13.2875 36.6066 17.2835 36.6066 21.6195C36.6066 25.9555 34.7361 29.9515 31.7604 32.6721C30.4851 34.0325 28.5296 33.6924 27.6794 32.162Z" fill="#00FF7F"/>
</svg>
