<svg width="30" height="33" viewBox="0 0 30 33" fill="none" xmlns="http://www.w3.org/2000/svg">
<g clip-path="url(#clip0_53_4046)">
<path d="M7.84816 25.5238L8.31588 25.7576C10.223 26.892 12.4033 27.4849 14.6222 27.4726C21.4532 27.457 27.0658 21.8312 27.0658 15.0002C27.0658 11.6989 25.7546 8.52858 23.423 6.19156C21.0946 3.83039 17.9134 2.49974 14.5981 2.49974C7.79827 2.49974 2.20361 8.09518 2.20361 14.8942C2.20361 14.948 2.20361 15.001 2.20439 15.0548C2.22487 17.3664 2.87141 19.6292 4.07526 21.6028L4.38706 22.0705L3.13983 26.6697L7.84816 25.5238Z" fill="#00E676"/>
<path d="M24.8106 4.78838C22.1563 2.0803 18.5151 0.561031 14.7236 0.578907H14.6994C6.89092 0.578931 0.465304 7.00458 0.465304 14.8131C0.465304 14.8497 0.466085 14.8856 0.466085 14.9222C0.495497 17.4048 1.13818 19.8417 2.33695 22.0159L0.310163 29.4213L7.86377 27.4725C9.95046 28.6181 12.2964 29.2087 14.6768 29.1875C22.5141 29.1446 28.939 22.6824 28.9343 14.8442C28.953 11.0784 27.468 7.45669 24.8106 4.78838ZM14.7236 26.771C12.6135 26.782 10.5406 26.2159 8.72902 25.134L8.2613 24.9001L3.76345 26.0694L4.93273 21.6261L4.62094 21.1584C3.46271 19.2882 2.8491 17.1321 2.84907 14.9323C2.84907 8.44514 8.18726 3.10692 14.6745 3.10692C21.1617 3.10692 26.4998 8.44514 26.4998 14.9323C26.4998 19.017 24.3834 22.8227 20.913 24.978C19.0775 26.1538 16.9423 26.7762 14.7626 26.771M21.6146 18.1182L20.7571 17.7285C20.7571 17.7285 19.5098 17.1828 18.7303 16.7931C18.6524 16.7931 18.5744 16.7151 18.4965 16.7151C18.3043 16.7198 18.1165 16.7735 17.9508 16.871C17.7848 16.9684 17.8728 16.949 16.7815 18.1962C16.7075 18.342 16.5555 18.4332 16.3918 18.4301H16.3138C16.1966 18.4104 16.088 18.3561 16.002 18.2742L15.6122 18.1182C14.7759 17.7642 14.0102 17.2625 13.3516 16.6372C13.1957 16.4812 12.9618 16.3253 12.8059 16.1694C12.2288 15.6166 11.7305 14.9871 11.3248 14.2986L11.2469 14.1427C11.1792 14.0474 11.1266 13.9422 11.091 13.8309C11.0706 13.6958 11.0982 13.5579 11.1689 13.4411C11.2399 13.3242 11.4807 13.0513 11.7146 12.8175C11.9485 12.5836 11.9485 12.4277 12.1044 12.2718C12.1845 12.1605 12.2399 12.0334 12.2667 11.8989C12.2936 11.7645 12.2914 11.6258 12.2603 11.4923C11.897 10.4836 11.4806 9.49483 11.013 8.5301C10.8877 8.33516 10.6924 8.19568 10.4674 8.14033H9.60988C9.45398 8.14033 9.29808 8.21828 9.14216 8.21828L9.06421 8.29623C8.90831 8.37417 8.75242 8.5301 8.59649 8.60804C8.4406 8.68599 8.36265 8.91986 8.20675 9.07576C7.6618 9.76441 7.36027 10.6142 7.34926 11.4923C7.3579 12.11 7.49043 12.7197 7.73901 13.2852L7.81698 13.519C8.51693 15.0155 9.49583 16.3648 10.7012 17.4946L11.013 17.8064C11.2399 17.9944 11.4487 18.2032 11.6366 18.4301C13.2518 19.8355 15.1702 20.8489 17.2414 21.3923C17.4753 21.4702 17.7871 21.4702 18.0209 21.5482H18.8005C19.2079 21.5281 19.6064 21.4218 19.9698 21.2363C20.1607 21.1498 20.3431 21.0454 20.5154 20.9245L20.6713 20.7686C20.8272 20.6127 20.9831 20.5348 21.139 20.3789C21.2914 20.2431 21.4228 20.0855 21.5288 19.9112C21.6785 19.5619 21.7837 19.1956 21.8406 18.8198V18.2742C21.7706 18.2112 21.6918 18.1587 21.6068 18.1182" fill="white"/>
</g>
<defs>
<clipPath id="clip0_53_4046">
<rect width="28.7752" height="32.3721" fill="white" transform="translate(0.310165 0.62677)"/>
</clipPath>
</defs>
</svg>
