<svg width="28" height="23" viewBox="0 0 28 23" fill="none" xmlns="http://www.w3.org/2000/svg">
<path d="M8.65621 22.8372C18.9656 22.8372 24.6035 14.3811 24.6035 7.04825C24.6035 6.8081 24.5985 6.56905 24.5876 6.33099C25.6846 5.5451 26.6313 4.57204 27.3834 3.45744C26.3791 3.89949 25.2984 4.19701 24.1647 4.33115C25.3219 3.64417 26.2103 2.55734 26.6294 1.26185C25.5292 1.90805 24.3255 2.36359 23.0703 2.60883C22.0476 1.53019 20.5914 0.855576 18.9791 0.855576C15.8839 0.855576 13.3739 3.34071 13.3739 6.40402C13.3739 6.83953 13.4231 7.26301 13.5193 7.66934C8.86098 7.43727 4.73032 5.2291 1.96586 1.87146C1.46796 2.71832 1.20607 3.6808 1.20694 4.6606C1.20694 6.58587 2.1964 8.28543 3.70115 9.27977C2.81107 9.25286 1.94054 9.01483 1.16274 8.5857C1.16191 8.609 1.16191 8.6317 1.16191 8.65659C1.16191 11.344 3.09387 13.5878 5.65849 14.0963C5.17682 14.2262 4.67978 14.2918 4.18056 14.2915C3.82003 14.2915 3.46866 14.2564 3.12718 14.1915C3.84074 16.3964 5.90985 18.0009 8.36303 18.0457C6.44467 19.5344 4.02814 20.4211 1.40172 20.4211C0.954933 20.4214 0.508511 20.3958 0.0647736 20.3442C2.54533 21.9184 5.49074 22.8369 8.65648 22.8369" fill="#1DA1F2"/>
</svg>
