<svg width="25" height="24" viewBox="0 0 25 24" fill="none" xmlns="http://www.w3.org/2000/svg">
<path d="M12.5 0C5.89271 0 0.5 5.39272 0.5 12C0.5 18.6073 5.89271 24 12.5 24C19.1073 24 24.5 18.6073 24.5 12C24.5 5.39272 19.1073 0 12.5 0ZM3.85223 12C3.85223 9.52227 4.92105 7.23887 6.62146 5.68422C7.30162 5.05264 8.46761 5.24696 8.95344 6.07288L11.9656 11.2713C12.2571 11.7571 12.2571 12.3401 11.9656 12.8259L8.95344 18.0243C8.46761 18.8988 7.30162 19.0445 6.57288 18.3644C4.92105 16.7125 3.85223 14.4777 3.85223 12ZM16.0466 17.9271L13.0344 12.7288C12.7429 12.2429 12.7429 11.6599 13.0344 11.1741L16.0466 5.9757C16.5324 5.14979 17.6498 4.95547 18.3785 5.58705C20.0789 7.1417 21.1478 9.4251 21.1478 11.9028C21.1478 14.3806 20.0789 16.664 18.3785 18.2186C17.6498 18.996 16.5324 18.8016 16.0466 17.9271Z" fill="white"/>
</svg>
